<svg xmlns="http://www.w3.org/2000/svg" xmlns:xlink="http://www.w3.org/1999/xlink" width="63.337" height="35.942" viewBox="0 0 63.337 35.942"><defs><style>.a{fill:url(#a);}.b{fill:#004686;}.c{fill:#ef9b11;}.d{fill:#f7e122;}.e{fill:#0055a3;}.f{fill:#231f20;}.g{fill:#f79410;}.h{fill:#ff5f00;}.i{fill:#eb001b;}.j{fill:#f79e1b;}</style><radialGradient id="a" cx="-164.261" cy="190.695" r="31.018" gradientTransform="matrix(0.493, 0.528, -0.486, 0.454, -11.506, 209.436)" gradientUnits="userSpaceOnUse"><stop offset="0" stop-color="#7fd3f3"/><stop offset="1" stop-color="#017cc2"/></radialGradient></defs><g transform="translate(-3.57 -1.79)"><path class="a" d="M62.671,10.536H61.48a1.754,1.754,0,0,0-.838.21v-.21h-1.82a1.1,1.1,0,0,0-.772.21v-.21H54.9v.21a1.467,1.467,0,0,0-.838-.21H51.852v.21a1.467,1.467,0,0,0-.915-.21H48.522l-.562.629-.485-.629h-3.5v3.849h3.5l.562-.629.485.629h2.206V13.4h.21a1.963,1.963,0,0,0,.915-.143v1.1h1.787v-1.1h.066c.066,0,.066,0,.066.066v.915h5.316A1.61,1.61,0,0,0,60,13.965v.276H61.69l.982-.143v4.687H39.291V9.631h1.1L40.67,9h.507l.276.629h2.206V9.124l.21.485h1.1l.21-.485v.485h5.514v-1.1h.066c.066,0,.066,0,.066.143v.915h2.867V9.345a2.3,2.3,0,0,0,1.1.276h1.191l.276-.629h.562l.276.629h2.3v-.5l.408.618h1.82V5.815H59.793v.419l-.276-.485H57.631v.485l-.276-.485H54.83a2.592,2.592,0,0,0-1.1.21V5.815H51.952v.21a1.257,1.257,0,0,0-.772-.21H44.816L44.4,6.8l-.485-.982H41.949v.419l-.21-.485H39.986l-.695,1.787V1.79h23.38v8.746M61.028,9.124h-.915l-1.29-2.206V9H57.554l-.276-.629h-1.4L55.6,9h-.695a1.4,1.4,0,0,1-.982-.276,1.4,1.4,0,0,1-.353-1.1,1.4,1.4,0,0,1,.353-1.1,1.467,1.467,0,0,1,.982-.353h.607v.75h-.629a.772.772,0,0,0-.485.143.982.982,0,0,0-.21.629.838.838,0,0,0,.21.629l.485.21h.276l.915-2.206h.982l1.1,2.592V6.345h1.1l1.191,1.963V6.345h.573Zm-8.514,0h.629V6.268h-.629Zm-.695-2.691-.838-.143H49.437V9.124h.629v-1.1h.695a.485.485,0,0,1,.485.066.915.915,0,0,1,.066.485v.353h.629V8.44a.772.772,0,0,0-.066-.485L51.6,7.679a.772.772,0,0,0,.5-.761.419.419,0,0,0-.276-.485M49.084,8.506H47.54V7.878h1.467V7.315H47.551V6.83H49.1V6.268H46.89V9H49.1v-.5ZM46.426,6.3h-1.1l-.838,1.864L43.57,6.279h-1.1V8.859l-1.1-2.592h-.982L39.28,9h.695l.276-.629h1.4L41.927,9h1.345V6.918l.982,2.206h.562L45.8,6.918V9.124h.629Zm10.565,1.61-.419-1.1-.485,1.1Zm-5.669-.452H50.132v-.54h1.1a.276.276,0,0,1,0,.485m-10.852.419.485-1.1.485,1.1h-.915m22.333,5.04a.838.838,0,0,1-.75.915H60.565V13.2h1.566a.276.276,0,0,0,0-.386H61.91c-.629,0-1.4,0-1.4-.838a.838.838,0,0,1,.684-.971h1.555v.629H61.271a.276.276,0,0,0-.066.21.21.21,0,0,0,.143.21h.562a1.1,1.1,0,0,1,.772.21,1.544,1.544,0,0,1,.143.629m-2.8-.562a1.1,1.1,0,0,0-.772-.21H58.69a.21.21,0,0,1-.143-.21.276.276,0,0,1,.066-.21H60.08v-.662H58.745a.772.772,0,0,0-.915.838c0,.838.772.838,1.4.838h.21a.276.276,0,0,1,0,.386H57.9v.629h1.257a.838.838,0,0,0,1.1-.838.562.562,0,0,0-.143-.629m-2.514.838H56.054V12.62h1.467v-.54h-1.5v-.485h1.544v-.562H55.36v2.724h2.206V13.2h0ZM54.621,11.1l-.838-.143H52.205v2.8h.629v-.982h.695a.562.562,0,0,1,.485.066.915.915,0,0,1,.066.485v.419h.772V13.2a.772.772,0,0,0-.066-.485l-.243-.287a.772.772,0,0,0,.485-.695.419.419,0,0,0-.276-.485m-3.706-.143H48.9l-.838.915-.915-.982H44.485v2.713h2.592l.838-.915.838.915H50v-.915h.838c.562,0,1.1-.143,1.1-.915a.915.915,0,0,0-.849-.9h-.154m3.154,1.1h-1.1v-.529h1.1a.276.276,0,0,1,0,.485m-3.22.143H50v-.706h.838a.353.353,0,0,1,0,.695m-2.514.066,1.1-1.1v2.206Zm-1.632.849H45.147v-.485h1.4V12.08H45.169v-.485h1.61l.695.838-.695.838" transform="translate(3.673)"/><g transform="translate(3.967 5.01)"><path class="b" d="M14.83,15.082,16.573,4.87h2.779L17.609,15.082Z" transform="translate(-2.809 -4.693)"/><path class="b" d="M27.275,5.129a7.169,7.169,0,0,0-2.492-.419c-2.757,0-4.676,1.423-4.676,3.375,0,1.467,1.379,2.294,2.437,2.779s1.445.827,1.445,1.268c0,.684-.871,1-1.676,1a5.845,5.845,0,0,1-2.614-.529l-.353-.165-.386,2.294a8.823,8.823,0,0,0,3.1.54c2.934,0,4.819-1.368,4.842-3.485,0-1.158-.728-2.051-2.338-2.779C23.581,8.537,23,8.217,23,7.743s.5-.882,1.6-.882a5.15,5.15,0,0,1,2.062.375l.254.121.375-2.206Z" transform="translate(-2.384 -4.71)"/><path class="b" d="M33.727,4.881H31.521a1.379,1.379,0,0,0-1.456.849L25.93,15.082h2.945l.585-1.533h3.562c.088.353.331,1.533.331,1.533h2.581l-2.206-10.2M30.319,11.5l1.1-2.856.364-.982.187.882.64,2.956Z" transform="translate(-1.667 -4.693)"/><path class="b" d="M13.361,4.872l-2.724,6.97-.276-1.423a7.952,7.952,0,0,0-3.871-4.3L8.982,15.04h2.945L16.272,4.85Z" transform="translate(-3.667 -4.695)"/><path class="c" d="M8.341,4.871H3.93v.21a9.22,9.22,0,0,1,6.694,5.327l-1-4.687a1.169,1.169,0,0,0-1.279-.849Z" transform="translate(-3.93 -4.694)"/></g><path class="d" d="M4.882,34.892H36.931a1.246,1.246,0,0,0,1.3-1.18V20.72a1.246,1.246,0,0,0-1.3-1.18H4.882A1.246,1.246,0,0,0,3.57,20.72h0V33.712a1.246,1.246,0,0,0,1.312,1.18Z" transform="translate(0 1.825)"/><path class="e" d="M9.717,24.94a1.18,1.18,0,0,0-.871-.32,1.4,1.4,0,0,0-.518.1l-.121.044a2.206,2.206,0,0,0-.662.419l.055-.551H6.982v.474L6.9,25.58,6,29.671h.717L7.1,27.763a1.423,1.423,0,0,0,.474.43,1.39,1.39,0,0,0,.629.154h.121a1.765,1.765,0,0,0,1.368-.871,2.415,2.415,0,0,0,.32-.805,2.5,2.5,0,0,0,.077-.871,1.4,1.4,0,0,0-.375-.86Zm-.408,1.621a2.934,2.934,0,0,1-.287.706,1.3,1.3,0,0,1-.452.485l-.265.1a1.1,1.1,0,0,1-.309,0,.717.717,0,0,1-.75-.673h0a2.415,2.415,0,0,1,.066-.717,2.934,2.934,0,0,1,.287-.75,1.1,1.1,0,0,1,.728-.673.871.871,0,0,1,.265,0,.75.75,0,0,1,.551.221.948.948,0,0,1,.243.585,2.294,2.294,0,0,1-.066.728Z" transform="translate(0.25 2.348)"/><path class="e" d="M25.724,25.781a1.345,1.345,0,0,0-.353-.882,1.1,1.1,0,0,0-.838-.309,1.412,1.412,0,0,0-.64.132h-.1a2.779,2.779,0,0,0-.474.364v-.452H22.35a7.444,7.444,0,0,1-.2,1.1l-.871,3.915h1.1l.43-1.908a1.1,1.1,0,0,0,.452.452,1.268,1.268,0,0,0,.518.154h.132a1.555,1.555,0,0,0,1.357-.772,2.68,2.68,0,0,0,.452-1.8Zm-1.1.706a3.308,3.308,0,0,1-.232.673,1.158,1.158,0,0,1-.309.419.518.518,0,0,1-.232.1h-.165a.573.573,0,0,1-.452-.187.849.849,0,0,1-.2-.518,1.974,1.974,0,0,1,.254-1.213,1.026,1.026,0,0,1,.551-.5h.232a.562.562,0,0,1,.419.165.673.673,0,0,1,.176.452,2.106,2.106,0,0,1-.055.607Z" transform="translate(1.821 2.345)"/><path class="e" d="M28.652,24.843a2.007,2.007,0,0,0-1.1-.232,2.206,2.206,0,0,0-.43,0,1.908,1.908,0,0,0-.717.243,1.015,1.015,0,0,0-.452.783h1.1a.706.706,0,0,1,.11-.265.088.088,0,0,1,.066-.077.562.562,0,0,1,.364-.1.507.507,0,0,1,.309.077.309.309,0,0,1,.132.243.827.827,0,0,1,0,.176,1.908,1.908,0,0,1-.055.309h-.816a2.647,2.647,0,0,0-1.224.353,1.1,1.1,0,0,0-.518,1.048.948.948,0,0,0,.331.706,1.1,1.1,0,0,0,.783.265,1.213,1.213,0,0,0,.585-.154h0a1.323,1.323,0,0,0,.452-.419v.551H28.6v-.474a1.359,1.359,0,0,1,.077-.452l.287-1.279a2.569,2.569,0,0,1,.066-.331,1.1,1.1,0,0,0,0-.3A.882.882,0,0,0,28.652,24.843Zm-1.224,2.581a1.1,1.1,0,0,1-.32.254.6.6,0,0,1-.265.055.386.386,0,0,1-.287-.1.353.353,0,0,1-.121-.287.551.551,0,0,1,.3-.551,1.1,1.1,0,0,1,.386-.176,1.687,1.687,0,0,1,.474-.055h.2a1.754,1.754,0,0,1-.364.86Z" transform="translate(2.247 2.346)"/><path class="e" d="M28.88,29.68l.893-1.345-.64-3.695h1.1l.309,2.537,1.434-2.537h1.048l-2.283,3.849-.673,1.191Z" transform="translate(2.603 2.35)"/><path class="e" d="M12.935,24.9a1.6,1.6,0,0,0-1.026-.309h-.342a2.669,2.669,0,0,0-.607.154,1.654,1.654,0,0,0-.662.518,2.658,2.658,0,0,0-.419.9,2.581,2.581,0,0,0-.1.948,1.224,1.224,0,0,0,.452.948,1.5,1.5,0,0,0,1.037.331h.309a1.974,1.974,0,0,0,.684-.176,1.6,1.6,0,0,0,.673-.607,2.724,2.724,0,0,0,.364-.871,2.658,2.658,0,0,0,.1-.948,1.235,1.235,0,0,0-.463-.893Zm-.364,1.7a2.757,2.757,0,0,1-.3.772,1.213,1.213,0,0,1-.419.452.948.948,0,0,1-.3.121H11.3a.816.816,0,0,1-.585-.2.805.805,0,0,1-.243-.551,2.691,2.691,0,0,1,.066-.772,2.5,2.5,0,0,1,.287-.739,1.577,1.577,0,0,1,.419-.474,1.368,1.368,0,0,1,.3-.121.948.948,0,0,1,.265,0,.783.783,0,0,1,.585.2.948.948,0,0,1,.243.607,2.669,2.669,0,0,1-.066.695Z" transform="translate(0.638 2.345)"/><path class="e" d="M13.789,27.141a.463.463,0,0,0,0,.176.232.232,0,0,0,0,.132.386.386,0,0,0,.176.32.761.761,0,0,0,.474.1A1.169,1.169,0,0,0,15.1,27.7a.485.485,0,0,0,.221-.452.375.375,0,0,0-.154-.287,2.713,2.713,0,0,0-.585-.32,2.944,2.944,0,0,1-.794-.485.7.7,0,0,1-.254-.5.882.882,0,0,1,.353-.794,1.776,1.776,0,0,1,1.1-.309,1.842,1.842,0,0,1,.948.187.662.662,0,0,1,.353.551v.132a1.334,1.334,0,0,1,0,.2h-.662v-.2a.386.386,0,0,0-.243-.243.772.772,0,0,0-.452-.1.838.838,0,0,0-.507.1.408.408,0,0,0-.176.386.364.364,0,0,0,.154.254,2.669,2.669,0,0,0,.585.331,3.055,3.055,0,0,1,.849.518.849.849,0,0,1,.221.518.948.948,0,0,1-.43.871,2.04,2.04,0,0,1-1.235.353,1.908,1.908,0,0,1-.948-.221.794.794,0,0,1-.386-.618.507.507,0,0,1,0-.2v-.232Z" transform="translate(0.975 2.341)"/><path class="e" d="M17.891,28.434h-.673a.948.948,0,0,1-.585-.132.507.507,0,0,1-.221-.43,1.555,1.555,0,0,1,0-.331,4.809,4.809,0,0,1,.077-.5l.452-1.776H16.27l.121-.474h.684l.187-.838.717-.176-.221,1h.794l-.1.474h-.827l-.4,1.908a1.522,1.522,0,0,0-.066.32.43.43,0,0,0,0,.176.232.232,0,0,0,.1.221.585.585,0,0,0,.353.077h.441Z" transform="translate(1.306 2.262)"/><path class="e" d="M21.29,24.835a1.842,1.842,0,0,0-1.1-.265h-.154a1.831,1.831,0,0,0-.739.2,1.6,1.6,0,0,0-.64.562,3.309,3.309,0,0,0-.364.948,2.856,2.856,0,0,0-.1.948,1.213,1.213,0,0,0,.419.871,1.6,1.6,0,0,0,1.026.309h.386a1.753,1.753,0,0,0,.772-.287,1.4,1.4,0,0,0,.607-.849h-.838a.893.893,0,0,1-.353.474l-.232.1a.794.794,0,0,1-.309.055.893.893,0,0,1-.585-.187.805.805,0,0,1-.243-.518,1.908,1.908,0,0,1,0-.265,1.279,1.279,0,0,1,.066-.309h2.625a1.985,1.985,0,0,0,.066-.474,2.3,2.3,0,0,0,0-.43A1.1,1.1,0,0,0,21.29,24.835ZM21,25.784v.287H19.084a1.423,1.423,0,0,1,.386-.805A.871.871,0,0,1,20.021,25h.132a.948.948,0,0,1,.585.176.607.607,0,0,1,.232.452.386.386,0,0,1,0,.176Z" transform="translate(1.503 2.342)"/><g transform="translate(45.688 35.107)"><path class="f" d="M62.538,34.382Zm0,0h0l.055.066h0v-.066h0v.066h0v-.165Zm0,.232h0a.143.143,0,0,0,0-.11h-.11a.143.143,0,0,0,0,.11h.055m0-.32h.132v.055a.176.176,0,0,1,0,.143v.055h-.254v-.055a.176.176,0,0,1,0-.143v-.055h.132M45.4,33.643a.551.551,0,1,1,.149.411.551.551,0,0,1-.149-.411m1.489,0v-.915h-.4v.221a.7.7,0,0,0-.573-.265.965.965,0,0,0,0,1.93.7.7,0,0,0,.573-.265v.221h.4Zm13.466,0a.551.551,0,1,1,.149.411.551.551,0,0,1-.149-.411m1.489,0V32h-.4v.959a.7.7,0,0,0-.573-.265.965.965,0,0,0,0,1.93.7.7,0,0,0,.573-.265v.221h.43ZM51.95,33a.452.452,0,0,1,.463.441h-.948A.474.474,0,0,1,51.95,33m0-.353a.965.965,0,0,0,0,1.93,1.1,1.1,0,0,0,.75-.254l-.2-.3a.871.871,0,0,1-.551.176.507.507,0,0,1-.551-.452h1.357V33.6a.882.882,0,0,0-.871-.959m4.808.959a.551.551,0,1,1,.149.411.551.551,0,0,1-.149-.411m1.489,0v-.915h-.4V32.9a.7.7,0,0,0-.573-.265.965.965,0,0,0,0,1.93.7.7,0,0,0,.573-.265v.221h.4Zm-3.739,0a.926.926,0,0,0,.982.959.959.959,0,0,0,.662-.221l-.187-.32a.805.805,0,0,1-.474.165.585.585,0,1,1,0-1.169.805.805,0,0,1,.474.165l.187-.32a.959.959,0,0,0-.662-.221.926.926,0,0,0-.982.959m5.139-.959a.54.54,0,0,0-.485.265v-.221h-.4v1.831h.4V33.489c0-.3.132-.474.386-.474a.65.65,0,0,1,.254,0l.121-.375a.849.849,0,0,0-.287,0m-10.687.187a1.368,1.368,0,0,0-.75-.187c-.463,0-.761.221-.761.585s.221.485.629.54h.187c.221,0,.32.088.32.187s-.143.221-.419.221a.982.982,0,0,1-.607-.187l-.187.309a1.323,1.323,0,0,0,.794.243c.529,0,.838-.254.838-.6s-.243-.485-.64-.551H48.1c-.176,0-.309-.055-.309-.176s.132-.21.353-.21a1.18,1.18,0,0,1,.573.154l.176-.32Zm5.139-.187a.54.54,0,0,0-.485.265v-.221h-.4v1.831h.4V33.489c0-.3.132-.474.386-.474a.65.65,0,0,1,.254,0l.121-.375a.849.849,0,0,0-.287,0m-3.4,0h-.651v-.551h-.408v.551h-.375V33.1h.375v.838c0,.43.165.684.64.684a.937.937,0,0,0,.5-.143l-.11-.342a.739.739,0,0,1-.353.1c-.2,0-.265-.121-.265-.309V33.1h.651v-.364ZM44.66,34.47v-1.1a.684.684,0,0,0-.717-.728.706.706,0,0,0-.64.331.673.673,0,0,0-.607-.331.607.607,0,0,0-.54.276v-.221h-.4v1.831h.4V33.511a.43.43,0,0,1,.452-.485c.265,0,.4.176.4.485v1.015h.408V33.511a.43.43,0,0,1,.452-.485c.276,0,.4.176.4.485v1.015h.408Z" transform="translate(-41.76 -32)"/></g><g transform="translate(44.562 20.351)"><g transform="translate(21.539 10.918)"><path class="g" d="M60.855,28.785V28.52h-.066l-.077.187-.077-.187h-.066v.265h0v-.2l.077.176h0l.077-.176v.2Zm-.441,0v-.221h-.055v.221Z" transform="translate(-60.27 -28.52)"/></g><path class="h" d="M54.174,30.808H48.13V20h6.044Z" transform="translate(-39.979 -18.478)"/><path class="i" d="M49.276,25.52a6.893,6.893,0,0,1,2.636-5.382,6.9,6.9,0,1,0,0,10.852,6.893,6.893,0,0,1-2.636-5.426" transform="translate(-40.739 -18.616)"/><path class="j" d="M62.042,25.524A6.9,6.9,0,0,1,50.87,30.95a6.9,6.9,0,0,0,0-10.852,6.9,6.9,0,0,1,11.172,5.426" transform="translate(-39.698 -18.62)"/></g></g></svg>