<svg xmlns="http://www.w3.org/2000/svg" width="38" height="35.266" viewBox="0 0 38 35.266"><defs><style>.a{fill:#253b80;}.b{fill:#179bd7;}.c{fill:#222d65;}</style></defs><g transform="translate(-0.688 -0.7)"><path class="a" d="M5.286,21H2.335a.352.352,0,0,0-.389.352L.691,29a.264.264,0,0,0,.264.3H2.4a.352.352,0,0,0,.389-.352l.3-2.059a.414.414,0,0,1,.389-.352h.967A3.089,3.089,0,0,0,7.86,23.715a2.26,2.26,0,0,0-.389-1.921A2.725,2.725,0,0,0,5.286,21Zm.352,2.8c-.176,1.092-.967,1.092-1.8,1.092H3.4l.3-2.009a.251.251,0,0,1,.264-.213h.213c.527,0,1.055,0,1.256.3a1.143,1.143,0,0,1,.2.829Z" transform="translate(0 4.743)"/><path class="a" d="M12.863,23.22H11.419a.276.276,0,0,0-.264.213v.389l-.088-.126a2.1,2.1,0,0,0-1.708-.615A3.277,3.277,0,0,0,6.171,25.97,2.649,2.649,0,0,0,6.7,28.155a2.2,2.2,0,0,0,1.783.753,2.687,2.687,0,0,0,1.971-.829v.389a.264.264,0,0,0,.264.3h1.256a.352.352,0,0,0,.389-.352l.791-4.9a.289.289,0,0,0-.289-.3Zm-2.009,2.8a1.57,1.57,0,0,1-1.62,1.356,1.168,1.168,0,0,1-.967-.389,1.143,1.143,0,0,1-.213-1,1.607,1.607,0,0,1,1.62-1.394,1.256,1.256,0,0,1,.967.389,1.632,1.632,0,0,1,.213,1.042Z" transform="translate(1.284 5.275)"/><path class="a" d="M18.9,23.19H17.456a.54.54,0,0,0-.352.176l-1.971,2.926-.829-2.8a.414.414,0,0,0-.389-.3H12.509a.239.239,0,0,0-.213.352l1.57,4.633-1.482,2.1a.251.251,0,0,0,.213.389h1.444a.54.54,0,0,0,.4-.176l4.771-6.906a.3.3,0,0,0-.314-.389Z" transform="translate(2.74 5.305)"/><path class="b" d="M22.286,21H19.335a.352.352,0,0,0-.389.352L17.691,29a.264.264,0,0,0,.264.3h1.532a.314.314,0,0,0,.3-.264l.352-2.185a.414.414,0,0,1,.389-.352H21.5a3.089,3.089,0,0,0,3.415-2.838,2.26,2.26,0,0,0-.389-1.921A3.039,3.039,0,0,0,22.286,21Zm.352,2.8c-.176,1.092-.967,1.092-1.8,1.092H20.4l.3-2.009a.251.251,0,0,1,.264-.213h.213c.527,0,1.055,0,1.256.3a1.143,1.143,0,0,1,.188.829Z" transform="translate(4.019 4.744)"/><path class="b" d="M29.823,23.22H28.379a.276.276,0,0,0-.264.213v.389l-.088-.126a2.1,2.1,0,0,0-1.708-.615,3.277,3.277,0,0,0-3.189,2.888,2.649,2.649,0,0,0,.527,2.185,2.2,2.2,0,0,0,1.8.741,2.687,2.687,0,0,0,1.971-.829v.389a.264.264,0,0,0,.264.3h1.256a.352.352,0,0,0,.389-.352l.791-4.9A.3.3,0,0,0,29.823,23.22Zm-1.971,2.8a1.57,1.57,0,0,1-1.607,1.356,1.256,1.256,0,0,1-.967-.389,1.143,1.143,0,0,1-.213-1,1.607,1.607,0,0,1,1.62-1.394,1.256,1.256,0,0,1,.967.389,1.632,1.632,0,0,1,.2,1.042Z" transform="translate(5.245 5.275)"/><path class="b" d="M30.066,21.176,28.811,29a.264.264,0,0,0,.264.3H30.33a.352.352,0,0,0,.389-.352L31.975,21.3a.264.264,0,0,0-.289-.3H30.3C30.192,21,30.066,21.088,30.066,21.176Z" transform="translate(6.71 4.745)"/><path class="a" d="M13.492,23.979l.4-2.649H8.52L11.559,1.579c0-.075.075-.075.075-.163s.075-.075.163-.075h7.534c2.511,0,4.257.477,5.135,1.519a3.139,3.139,0,0,1,.8,1.519,4.545,4.545,0,0,1,0,2.084V7.1l.4.239a3.566,3.566,0,0,1,.879.64A3.365,3.365,0,0,1,27.279,9.5a7.257,7.257,0,0,1-.075,2.248,6.579,6.579,0,0,1-.967,2.511,5.6,5.6,0,0,1-1.431,1.72,5.1,5.1,0,0,1-2.009.879,11.024,11.024,0,0,1-2.511.326H19.72a1.921,1.921,0,0,0-1.117.4,1.369,1.369,0,0,0-.565,1.042l-.075.239-.7,4.646v.163c0,.075,0,.075-.075.075h-.075a27.2,27.2,0,0,1-3.616.226Z" transform="translate(1.763 0.163)"/><path class="b" d="M25.352,5.62h0c0,.163-.075.326-.075.477-.967,5.135-4.42,6.818-8.789,6.818h-2.21a1.042,1.042,0,0,0-1.042.879h0l-1.168,7.157-.326,2.009a.565.565,0,0,0,.565.64h3.93a.954.954,0,0,0,.967-.8v-.163l.728-4.658.075-.239a.954.954,0,0,1,.967-.8H19.6c3.767,0,6.743-1.519,7.622-6.014a4.922,4.922,0,0,0-.8-4.5,5.148,5.148,0,0,0-1.067-.8Z" transform="translate(2.533 1.103)"/><path class="c" d="M24,5.384c-.163-.075-.326-.075-.477-.163a.912.912,0,0,0-.477-.075,14.377,14.377,0,0,0-1.934-.138H15.172a.6.6,0,0,0-.4,0,1.256,1.256,0,0,0-.565.728L12.95,13.683v.239a1.03,1.03,0,0,1,1.042-.879H16.24c4.332,0,7.709-1.77,8.789-6.818,0-.163.075-.326.075-.477a3.352,3.352,0,0,0-.8-.326A1.411,1.411,0,0,0,24,5.384Z" transform="translate(2.855 1.003)"/><path class="a" d="M15.522,6.878a1.017,1.017,0,0,1,.565-.778.728.728,0,0,1,.4,0h5.939a13.322,13.322,0,0,1,1.946.138c.163,0,.326.075.477.075a1.143,1.143,0,0,1,.477.163c.075,0,.163.075.239.075a8.325,8.325,0,0,1,.8.326,4.746,4.746,0,0,0-1.042-4.332C24.21,1.29,22.2.7,19.552.7H12.018a1.1,1.1,0,0,0-1.042.879L7.812,21.493a.615.615,0,0,0,.64.728h4.621l1.256-7.333Z" transform="translate(1.602)"/></g></svg>